HIERARCHY
ROOT joint_0
{
	OFFSET 0.000000 0.000000 0.000000
	CHANNELS 6 Xposition Yposition Zposition Zrotation Yrotation Xrotation 
	JOINT joint_1
	{
		OFFSET 10.084412 4.114712 95.061035
		CHANNELS 3 Zrotation Yrotation Xrotation
		JOINT joint_2
		{
			OFFSET -1.615463 4.243484 87.329956
			CHANNELS 3 Zrotation Yrotation Xrotation
			JOINT joint_3
			{
				OFFSET -3.579636 4.638191 87.154053
				CHANNELS 3 Zrotation Yrotation Xrotation
				JOINT joint_4
				{
					OFFSET 5.443451 7.217075 123.562988
					CHANNELS 3 Zrotation Yrotation Xrotation
					JOINT joint_5
					{
						OFFSET 21.688065 15.141808 90.458008
						CHANNELS 3 Zrotation Yrotation Xrotation
						End Site
						{
							OFFSET 0.000000 0.000000 0.000000
						}
					}
				}
				JOINT joint_6
				{
					OFFSET 3.611374 -22.863556 70.791992
					CHANNELS 3 Zrotation Yrotation Xrotation
					JOINT joint_7
					{
						OFFSET 3.493607 -153.029137 -12.665039
						CHANNELS 3 Zrotation Yrotation Xrotation
						JOINT joint_8
						{
							OFFSET -14.929443 -32.628616 -254.032959
							CHANNELS 3 Zrotation Yrotation Xrotation
							JOINT joint_9
							{
								OFFSET 11.589401 -3.548126 -242.255005
								CHANNELS 3 Zrotation Yrotation Xrotation
								End Site
								{
									OFFSET 0.000000 0.000000 0.000000
								}
							}
						}
					}
				}
				JOINT joint_10
				{
					OFFSET 2.651962 30.943008 67.690918
					CHANNELS 3 Zrotation Yrotation Xrotation
					JOINT joint_11
					{
						OFFSET -6.172562 150.392159 -30.576904
						CHANNELS 3 Zrotation Yrotation Xrotation
						JOINT joint_12
						{
							OFFSET 15.363358 20.741959 -255.254028
							CHANNELS 3 Zrotation Yrotation Xrotation
							JOINT joint_13
							{
								OFFSET 23.282578 -11.086121 -241.182983
								CHANNELS 3 Zrotation Yrotation Xrotation
								End Site
								{
									OFFSET 0.000000 0.000000 0.000000
								}
							}
						}
					}
				}
			}
		}
	}
	JOINT joint_14
	{
		OFFSET -7.080551 -92.910816 -106.291992
		CHANNELS 3 Zrotation Yrotation Xrotation
		JOINT joint_15
		{
			OFFSET -38.248322 -6.001282 -411.906006
			CHANNELS 3 Zrotation Yrotation Xrotation
			JOINT joint_16
			{
				OFFSET -11.189407 -11.244659 -448.150986
				CHANNELS 3 Zrotation Yrotation Xrotation
				JOINT joint_17
				{
					OFFSET 169.870491 -24.631378 -80.352999
					CHANNELS 3 Zrotation Yrotation Xrotation
					End Site
					{
						OFFSET 0.000000 0.000000 0.000000
					}
				}
			}
		}
	}
	JOINT joint_18
	{
		OFFSET -2.796600 85.817772 -112.273987
		CHANNELS 3 Zrotation Yrotation Xrotation
		JOINT joint_19
		{
			OFFSET -44.395859 -8.174402 -411.255005
			CHANNELS 3 Zrotation Yrotation Xrotation
			JOINT joint_20
			{
				OFFSET -25.617508 -5.555587 -447.666992
				CHANNELS 3 Zrotation Yrotation Xrotation
				JOINT joint_21
				{
					OFFSET 163.870811 53.215703 -78.867000
					CHANNELS 3 Zrotation Yrotation Xrotation
					End Site
					{
						OFFSET 0.000000 0.000000 0.000000
					}
				}
			}
		}
	}
}
MOTION
Frames: 13
Frame Time: 0.016667
-733.890747 -51.605572 1062.442017 4.213800 1.330620 2.726915 -0.724518 -3.320493 -0.462520 -0.930096 0.534757 -0.067411 -0.861483 -0.692494 0.061477 -1.823419 3.070680 5.359222 0.000000 0.000000 0.000000 -5.450019 -3.475156 1.867477 1.560968 -4.160216 -2.666577 -0.037980 6.914173 0.725490 0.000000 0.000000 0.000000 2.977146 -0.399704 -1.711002 0.082992 -0.885454 0.839288 0.199004 -0.308542 1.972002 0.000000 0.000000 0.000000 4.153338 -1.324602 -5.692670 3.620503 2.790403 0.152522 3.778476 -3.663793 1.260588 0.000000 0.000000 0.000000 -5.287822 -3.379968 3.751857 -4.839972 1.676022 -1.510206 -4.786131 0.489819 -2.455365 0.000000 0.000000 0.000000 
-730.738464 -51.714417 1062.345947 4.123878 2.009205 2.794454 -0.736500 -3.142917 -0.573472 -0.934200 0.526112 -0.044270 -0.869741 -0.660653 0.047226 -1.641735 1.804005 5.490635 0.000000 0.000000 0.000000 -5.230905 -3.009549 1.621473 1.455479 -3.666829 -2.800989 0.022284 5.476563 1.740894 0.000000 0.000000 0.000000 2.652544 0.042690 -1.315902 0.223801 -0.365655 0.778565 0.180266 -1.298511 1.314514 0.000000 0.000000 0.000000 4.240639 -1.722165 -5.885189 3.680695 2.467471 0.266642 3.825901 -3.596249 1.292755 0.000000 0.000000 0.000000 -5.289868 -3.770882 3.865206 -4.819771 1.369650 -1.669286 -4.777924 0.567091 -2.476207 0.000000 0.000000 0.000000 
-726.064148 -52.212311 1061.953979 4.026647 2.992601 2.907568 -0.707064 -2.993837 -0.898000 -0.896125 0.538847 0.070157 -0.841737 -0.627248 -0.026879 -1.352625 -0.186758 5.681748 0.000000 0.000000 0.000000 -4.965990 -2.215879 1.068574 1.240368 -2.817653 -2.670577 0.113948 3.284406 3.113270 0.000000 0.000000 0.000000 1.888254 0.704532 -0.543150 0.395045 0.444245 0.532566 0.160970 -2.491925 0.592078 0.000000 0.000000 0.000000 4.361495 -2.244101 -6.165456 3.766161 1.916551 0.428231 3.890565 -3.469608 1.341352 0.000000 0.000000 0.000000 -5.319258 -4.329760 4.067838 -4.809957 0.911975 -1.945856 -4.788898 0.663407 -2.511875 0.000000 0.000000 0.000000 
-720.713074 -52.622475 1062.100952 3.822135 3.981039 2.987204 -0.654579 -2.943238 -1.127633 -0.840341 0.556795 0.170603 -0.793247 -0.628515 -0.099422 -1.092283 -1.854499 5.773890 0.000000 0.000000 0.000000 -4.589737 -1.493837 0.512823 1.062535 -2.038040 -2.751448 0.225240 1.039768 4.685753 0.000000 0.000000 0.000000 1.121390 1.335209 0.269929 0.645630 1.247630 0.573517 0.112022 -4.445257 -0.721757 0.000000 0.000000 0.000000 4.505209 -3.023674 -6.470200 3.852043 1.856437 0.733075 3.982684 -3.438133 1.388371 0.000000 0.000000 0.000000 -5.255541 -4.996247 4.264301 -4.716629 0.744994 -2.246924 -4.718477 0.762166 -2.509047 0.000000 0.000000 0.000000 
-715.202087 -52.618202 1063.343018 3.392559 4.914115 2.964031 -0.568015 -3.194779 -1.041705 -0.769792 0.563723 0.172983 -0.721433 -0.662626 -0.111476 -0.970191 -2.367524 5.644982 0.000000 0.000000 0.000000 -3.900594 -1.157914 0.115358 1.064843 -1.649373 -3.337520 0.322504 -0.274682 6.198184 0.000000 0.000000 0.000000 0.553026 1.696093 0.765328 0.985363 1.806601 1.488379 -0.014921 -7.272662 -3.146839 0.000000 0.000000 0.000000 4.667104 -4.314620 -6.757815 3.922112 2.782601 1.268685 4.113428 -3.645952 1.417693 0.000000 0.000000 0.000000 -4.973252 -5.806290 4.389338 -4.432314 1.047493 -2.484570 -4.453931 0.895003 -2.424240 0.000000 0.000000 0.000000 
-709.219666 -52.374718 1065.360962 2.774865 5.900747 2.873887 -0.442595 -3.705624 -0.784631 -0.672230 0.554615 0.130057 -0.618535 -0.710525 -0.086285 -0.939056 -2.125544 5.369771 0.000000 0.000000 0.000000 -2.925335 -1.051694 -0.242805 1.179105 -1.484756 -4.241806 0.400957 -0.931332 7.699178 0.000000 0.000000 0.000000 0.013166 1.866864 0.994689 1.420388 2.227349 3.169261 -0.177333 -10.757163 -6.370579 0.000000 0.000000 0.000000 4.842974 -6.062867 -7.054538 3.989559 4.422594 1.979757 4.295087 -3.985284 1.449704 0.000000 0.000000 0.000000 -4.516817 -6.778598 4.458615 -3.991809 1.645224 -2.682009 -4.032326 1.084729 -2.282479 0.000000 0.000000 0.000000 
-702.880676 -51.988316 1068.139038 2.161163 6.424634 2.818473 -0.324539 -3.969582 -0.522759 -0.560901 0.559643 0.103478 -0.502151 -0.741702 -0.052716 -0.951549 -1.710074 5.146536 0.000000 0.000000 0.000000 -2.158422 -0.929538 -0.958188 1.134971 -1.292180 -5.055220 0.540201 -3.555390 9.978250 0.000000 0.000000 0.000000 -0.499930 2.178181 1.641386 2.160406 2.791006 4.519210 -0.184320 -16.460719 -9.595238 0.000000 0.000000 0.000000 5.042836 -7.676563 -7.389832 4.074590 6.747141 2.753292 4.555464 -4.216087 1.531198 0.000000 0.000000 0.000000 -4.099175 -7.710264 4.460298 -3.590015 3.096920 -2.972315 -3.652337 1.128569 -2.113364 0.000000 0.000000 0.000000 
-696.736084 -51.444408 1071.876953 1.685160 5.950290 2.889270 -0.238995 -3.449564 -0.332332 -0.437646 0.600273 0.072762 -0.375267 -0.703489 -0.008418 -0.998283 -1.478175 5.190045 0.000000 0.000000 0.000000 -1.971107 -0.709883 -1.859612 0.711642 -1.004707 -6.072753 0.786649 -10.663794 13.849927 0.000000 0.000000 0.000000 -1.032944 2.725310 2.452812 3.420138 3.586795 5.416976 0.054086 -26.043132 -13.585879 0.000000 0.000000 0.000000 5.286079 -8.739315 -7.814306 4.170501 10.023718 3.573685 4.931628 -4.127101 1.707367 0.000000 0.000000 0.000000 -3.877969 -8.549989 4.413364 -3.369684 6.262190 -3.554119 -3.480623 0.854379 -1.938633 0.000000 0.000000 0.000000 
-690.741943 -50.709881 1076.574951 1.274571 4.620885 3.027863 -0.173901 -2.218419 -0.082082 -0.304964 0.607978 0.017423 -0.243256 -0.609795 0.028169 -1.078497 -1.225975 5.350348 0.000000 0.000000 0.000000 -2.187311 -0.613087 -2.230117 -0.049123 -0.877294 -7.872455 0.987511 -21.140340 18.603267 0.000000 0.000000 0.000000 -1.570913 3.417618 3.213579 5.247522 4.393748 6.261591 0.807364 -39.196687 -16.590310 0.000000 0.000000 0.000000 5.552899 -9.406437 -8.258377 4.256489 14.207401 4.429713 5.448027 -3.512194 2.013463 0.000000 0.000000 0.000000 -3.773179 -9.310170 4.358510 -3.259502 10.890255 -4.361547 -3.484740 0.669356 -1.869916 0.000000 0.000000 0.000000 
-682.818481 -50.098366 1081.344971 0.876228 3.359173 3.121681 -0.115976 -1.326287 0.263213 -0.201208 0.583818 -0.077805 -0.138484 -0.564126 0.059334 -1.177308 -0.927439 5.546076 0.000000 0.000000 0.000000 -2.667301 -0.341844 -2.418243 -1.102646 -0.621598 -9.529322 1.007299 -32.682511 22.815374 0.000000 0.000000 0.000000 -1.939283 4.460985 3.979212 7.238090 5.120154 7.264406 2.077455 -52.959971 -16.780219 0.000000 0.000000 0.000000 5.818657 -9.905970 -8.575901 4.374695 18.041975 5.121302 6.038226 -2.296861 2.431835 0.000000 0.000000 0.000000 -3.690110 -9.676450 4.285427 -3.175083 14.785599 -4.910141 -3.535804 1.190891 -2.049568 0.000000 0.000000 0.000000 
-671.194946 -49.909279 1085.734985 0.498341 2.941514 3.136237 -0.058109 -1.877045 0.601128 -0.156313 0.648205 -0.144889 -0.083737 -0.638883 0.095224 -1.302403 -0.509856 5.748874 0.000000 0.000000 0.000000 -3.427689 0.744473 -2.707698 -2.471249 0.301934 -10.530125 0.918709 -46.059480 25.982896 0.000000 0.000000 0.000000 -1.961119 6.071427 4.718683 9.313033 5.806237 8.700805 3.724465 -66.062245 -17.053107 0.000000 0.000000 0.000000 6.095428 -10.457477 -8.731120 4.586269 20.552527 5.537711 6.611866 -0.693787 2.902840 0.000000 0.000000 0.000000 -3.585105 -9.587312 4.108209 -3.079542 16.495087 -4.847942 -3.485876 2.375900 -2.405817 0.000000 0.000000 0.000000 
-656.658630 -50.020653 1090.087036 0.146450 3.012253 3.097558 -0.032117 -3.459746 0.952226 -0.156004 0.802304 -0.148874 -0.068889 -0.814589 0.110278 -1.444612 0.015845 5.919382 0.000000 0.000000 0.000000 -4.528645 2.434649 -2.679541 -3.857709 1.407491 -11.338922 0.865603 -61.992574 27.830384 0.000000 0.000000 0.000000 -1.654376 8.202990 5.305412 11.715526 6.107071 10.554293 6.024872 -79.623417 -16.390003 0.000000 0.000000 0.000000 6.402018 -10.978293 -8.774606 4.884125 22.225600 5.791405 7.198155 1.219709 3.430667 0.000000 0.000000 0.000000 -3.494906 -9.159425 3.834771 -3.010465 16.864016 -4.369203 -3.384223 3.952541 -2.873834 0.000000 0.000000 0.000000 
-640.990540 -50.035107 1093.771973 -0.272489 3.222491 3.110636 -0.063249 -5.130144 1.234399 -0.150167 0.979074 -0.142656 -0.045404 -1.024803 0.105904 -1.553408 0.347381 6.090304 0.000000 0.000000 0.000000 -5.473577 4.136468 -2.784223 -5.041611 2.171583 -12.163814 0.629654 -77.185639 29.074112 0.000000 0.000000 0.000000 -1.440660 10.439013 5.977428 14.315579 5.806297 12.283055 -171.305298 -88.652670 164.052169 0.000000 0.000000 0.000000 6.698725 -11.781905 -9.005937 5.177453 24.294555 6.219819 7.892975 2.984785 3.977219 0.000000 0.000000 0.000000 -3.423572 -8.528601 3.493769 -2.934240 16.721592 -3.871440 -3.250643 5.538096 -3.331903 0.000000 0.000000 0.000000 
